<?xml version="1.0" encoding="utf-8"?>
<!-- Generator: Adobe Illustrator 19.1.0, SVG Export Plug-In . SVG Version: 6.00 Build 0)  -->
<svg version="1.1" id="Layer_1" xmlns="http://www.w3.org/2000/svg" xmlns:xlink="http://www.w3.org/1999/xlink" x="0px" y="0px"
	 viewBox="0 0 209.4 201" style="enable-background:new 0 0 209.4 201;" xml:space="preserve">
<style type="text/css">
	.st0{fill:none;stroke:#000000;stroke-width:4.7694;}
	.st1{fill:#FFFFFF;}
	.st2{fill:none;stroke:#000000;stroke-width:7;}
	.st3{fill:none;stroke:#000000;stroke-width:4.5715;}
	.st4{fill:none;stroke:#000000;stroke-width:2.1143;}
</style>
<circle class="st0" cx="283.1" cy="-420.1" r="83"/>
<polygon class="st1" points="164.4,-402.7 277,-407.4 336.4,-307.2 414.9,-355.4 414.3,-468 312.1,-579.1 197.3,-499.4 "/>
<circle class="st2" cx="-798.7" cy="-625.1" r="87"/>
<path id="SVGID_x5F_1_x5F_" style="fill:none;" d="M-847.5-673.9c27-27,70.7-27,97.6,0c27,27,27,70.7,0,97.6c-27,27-70.7,27-97.6,0
	C-874.5-603.2-874.5-646.9-847.5-673.9z"/>
<text><textPath  xlink:href="#SVGID_x5F_1_x5F_" startOffset="116.927%">
<tspan  style="font-family:'DINPro-Bold'; font-size:61px; letter-spacing:200;">LATIESHA</tspan></textPath>
</text>
<circle class="st3" cx="-480.3" cy="-599.2" r="79.6"/>
<circle class="st0" cx="19.8" cy="-687.5" r="83"/>
<polygon class="st1" points="-391.5,-538 -461.8,-579.3 -429.2,-603.9 -447.9,-639.6 -500.5,-646.1 -534.8,-619.1 -579.4,-662.4 
	-516.8,-738.9 -437.4,-707.9 -353.5,-665.8 -371.5,-599.3 "/>
<path id="SVGID_x5F_2_x5F_" style="fill:none;" d="M-440.2-543c-31.1,22.1-74.2,14.9-96.3-16.2s-14.9-74.2,16.2-96.3
	c31.1-22.1,74.2-14.9,96.3,16.2C-401.9-608.2-409.1-565.1-440.2-543z"/>
<text><textPath  xlink:href="#SVGID_x5F_2_x5F_" startOffset="177.425%">
<tspan  style="font-family:'DINPro-Bold'; font-size:30px; letter-spacing:300;">LATIESHA</tspan></textPath>
</text>
<circle class="st4" cx="-568.7" cy="-453.5" r="36.8"/>
<polygon class="st1" points="-517.5,-410 -544.7,-435.1 -546.7,-445.1 -538.9,-460.6 -561.1,-463.4 -575.6,-452 -605.5,-504.7 
	-575.3,-519.9 -534.4,-489.5 -498.9,-471.7 -506.6,-443.6 "/>
<polygon class="st1" points="102.8,-642 -96.4,-754.5 68.5,-819 194.6,-763.2 "/>
<path id="SVGID_x5F_3_x5F_" style="fill:none;" d="M-545.7-402.2c-15.8-3.4-25.7-19-22.3-34.8c3.4-15.8,19-25.7,34.8-22.3
	c15.8,3.4,25.7,19,22.3,34.8C-514.4-408.8-530-398.8-545.7-402.2z"/>
<text><textPath  xlink:href="#SVGID_x5F_3_x5F_" startOffset="177.425%">
<tspan  style="font-family:'DINPro-Bold'; font-size:14.8001px; letter-spacing:300;">LATIESHA</tspan></textPath>
</text>
<path id="SVGID_x5F_4_x5F_" style="fill:none;" d="M10.6-626.7c-37.3-8.2-60.8-45-52.7-82.2c8.2-37.3,45-60.8,82.2-52.7
	c37.3,8.2,60.8,45,52.7,82.2C84.6-642.1,47.8-618.5,10.6-626.7z"/>
<text><textPath  xlink:href="#SVGID_x5F_4_x5F_" startOffset="177.425%">
<tspan  style="font-family:'AvenirNext-DemiBold'; font-size:33px; letter-spacing:300;">latiesha</tspan></textPath>
</text>
<path id="SVGID_x5F_5_x5F_" style="fill:none;" d="M16.1-388.6c-23.3-5.1-38.1-28.1-33-51.4c5.1-23.3,28.1-38.1,51.4-33
	c23.3,5.1,38.1,28.1,33,51.4C62.4-398.2,39.4-383.5,16.1-388.6z"/>
<text><textPath  xlink:href="#SVGID_x5F_5_x5F_" startOffset="177.425%">
<tspan  style="font-family:'Whitney-BoldSC'; font-size:24px; letter-spacing:1000;">LATIESHA</tspan></textPath>
</text>
<path id="SVGID_x5F_6_x5F_" style="fill:none;" d="M318.5-353.5c-37.8,18.2-83.2,2.4-101.5-35.5c-18.2-37.8-2.4-83.2,35.5-101.5
	c37.8-18.2,83.2-2.4,101.5,35.5C372.2-417.2,356.3-371.7,318.5-353.5z"/>
<text><textPath  xlink:href="#SVGID_x5F_6_x5F_" startOffset="177.425%">
<tspan  style="font-family:'Whitney-BoldSC'; font-size:31px; letter-spacing:900;">LATIESHA</tspan></textPath>
</text>
<path class="st1" d="M194.6-94.2"/>
<g>
	<path d="M76.9,182.9c-27.9-9.7-47-33.3-52.5-60.4l-4.8,0.2c5.6,28.9,25.9,54.3,55.7,64.7c9.2,3.2,18.8,4.8,28.2,4.8
		c11.2,0,22.4-2.2,33-6.7l-2.5-4.2C115.8,188.9,95.7,189.5,76.9,182.9z"/>
	<polygon points="29.9,98.6 31.9,86.1 27.2,86.1 26.2,92.6 24.2,92.3 19.4,91.6 9.6,90 8.8,95.2 18.7,96.8 23.4,97.5 	"/>
	<path d="M39.5,57.6l2.5,4.6l3.4-3.9l-2.3-4.1l5-5.6l4.5,1.9l2.8-4.5l-3.6-1.4l-5-2l-12-4.8l-3.9,4.4L37,53.1L39.5,57.6z M36.8,43.7
		l6.2,2.7l1.2,0.5l-3.3,3.7l-0.7-1.2L36.8,43.7z"/>
	<polygon points="77.3,16.4 79.7,24.7 81,29.3 82,32.7 87.1,31.2 86.2,28 84.9,23.4 82.4,14.9 88.6,13.1 86.6,9 70.4,13.8 
		71.6,18.1 	"/>
	<polygon points="126.7,29.5 127.8,24.9 131.2,10.8 126,9.6 122.7,23.5 121.5,28.2 121,30.4 126.2,31.6 	"/>
	<polygon points="173.8,40.7 176.7,37.6 166.8,28.6 156.6,39.8 153.4,43.3 152.4,44.4 162.5,53.6 163.3,52.6 165.3,50.5 159.1,44.8 
		160.6,43.2 162.2,41.4 167.3,46 169.7,42.3 165.2,38.2 167.8,35.3 	"/>
	<path d="M182.2,88.9c1.4,0.8,3,1,5,0.5c0,0,0,0,0,0c3.4-1,4.4-3.2,4.7-8.2c0.2-2.7,0.6-3.5,1.6-3.8c1-0.3,1.8,0.3,2.2,1.8
		c0.5,1.6,0.4,3.7-0.1,5.8l4.5-0.5c0.3-2,0.4-3.9-0.4-6.6c-1.1-3.9-4.1-6.4-8-5.3c-3.5,1-4.3,3.2-4.7,7.8c-0.2,2.3-0.4,3.4-1.1,3.9
		c-0.2,0.2-0.4,0.3-0.7,0.4c-1.2,0.3-2.1-0.5-2.5-1.9c-0.6-2.1-0.5-4.6,0-7.1l-4.5,0.5l0,0c-0.3,2.4-0.3,4.9,0.5,7.6
		C179.3,86.1,180.5,88,182.2,88.9z"/>
	<polygon points="199.9,130.4 201.5,125.4 187.7,121.1 183.1,119.6 181.1,119 179.5,124.1 182.1,124.9 186.7,126.3 187.9,126.7 
		185.6,133.7 184.6,133.4 180.1,132 177.3,131.1 175.7,136.2 178.3,137 182.8,138.4 196.1,142.6 197.7,137.5 190.1,135.1 
		192.3,128.1 	"/>
	<path d="M161.7,162.6l-1.2-3.8l-4.1,3.2l1.5,4.4l0,0l-0.6,0.4l-5.4,4.1l-4-2.8l-3.6,3.9l3.4,2.2l4.4,2.8l10.9,7l4.6-3.5l-4.1-12.8
		L161.7,162.6z M156.2,174l-0.7-0.5l4-3l0.2,0.7l2.5,6.9L156.2,174z"/>
</g>
</svg>
